<?xml version="1.0" encoding="UTF-8" standalone="no"?>
<!-- Created with Inkscape (http://www.inkscape.org/) -->

<svg
   version="1.1"
   id="svg2"
   width="200"
   height="90"
   viewBox="610 530 1380 400"
   sodipodi:docname="Pocketme Logo (CMYK).ai"
   xmlns:inkscape="http://www.inkscape.org/namespaces/inkscape"
   xmlns:sodipodi="http://sodipodi.sourceforge.net/DTD/sodipodi-0.dtd"
   xmlns="http://www.w3.org/2000/svg"
   xmlns:svg="http://www.w3.org/2000/svg">
  <defs
     id="defs6">
    <clipPath
       clipPathUnits="userSpaceOnUse"
       id="clipPath16">
      <path
         d="M 0,800 H 1550 V 0 H 0 Z"
         id="path14" />
    </clipPath>
  </defs>
  <sodipodi:namedview
     id="namedview4"
     pagecolor="#ffffff"
     bordercolor="#000000"
     borderopacity="0.25"
     inkscape:showpageshadow="2"
     inkscape:pageopacity="0.0"
     inkscape:pagecheckerboard="0"
     inkscape:deskcolor="#d1d1d1" />
  <g
     id="g8"
     inkscape:groupmode="layer"
     inkscape:label="Pocketme Logo (CMYK)"
     transform="matrix(1.3333333,0,0,-1.3333333,0,1440)">
    <g
       id="g10">
      <g
         id="g12"
         clip-path="url(#clipPath16)">
        <g
           id="g18"
           transform="translate(490.954,725.0209)">
          <path
             d="M 0,0 C 0,-1.25 0.04,-2.49 0.13,-3.71 0.04,-3.24 0,-2.75 0,-2.25 Z"
             style="fill:#485ba9;fill-opacity:1;fill-rule:nonzero;stroke:none"
             id="path20" />
        </g>
        <g
           id="g22"
           transform="translate(671.0255,496.7667)">
          <path
             d="m 0,0 -156.274,46.357 c -8.454,0 -15.306,6.853 -15.306,15.306 v 90.614 c 0,8.453 6.852,15.306 15.306,15.306 L 0,121.226 c 8.453,0 15.306,-6.853 15.306,-15.306 V 15.306 C 15.306,6.853 8.453,0 0,0"
             style="fill:#6d8dc7;fill-opacity:1;fill-rule:nonzero;stroke:none"
             id="path24" />
        </g>
        <g
           id="g26"
           transform="translate(686.3326,602.6853)">
          <path
             d="m 0,0 v -86.429 c 0,-2.32 -0.074,-4.621 -0.241,-6.884 -3.526,-52.344 -47.13,-93.722 -100.364,-93.722 -53.253,0 -96.839,41.378 -100.365,93.722 -0.167,2.263 -0.241,4.564 -0.241,6.884 V 0 c 0,8.461 6.847,15.308 15.289,15.308 H -15.308 C -6.847,15.308 0,8.461 0,0"
             style="fill:#485ba9;fill-opacity:1;fill-rule:nonzero;stroke:none"
             id="path28" />
        </g>
        <g
           id="g30"
           transform="translate(452.1272,516.2559)">
          <path
             d="M 0,0 V -4.175 C 0,-5.103 -0.074,-6.012 -0.241,-6.884 -0.074,-4.62 0,-2.319 0,0"
             style="fill:#485ba9;fill-opacity:1;fill-rule:nonzero;stroke:none"
             id="path32" />
        </g>
        <g
           id="g34"
           transform="translate(585.7221,462.4635)">
          <path
             d="m 0,0 c -36.15,0 -65.56,29.409 -65.56,65.559 0,3.586 2.908,6.494 6.495,6.494 3.587,0 6.494,-2.908 6.494,-6.494 0,-28.987 23.583,-52.57 52.571,-52.57 28.988,0 52.57,23.583 52.57,52.57 0,3.586 2.908,6.494 6.494,6.494 3.587,0 6.495,-2.908 6.495,-6.494 C 65.559,29.409 36.149,0 0,0"
             style="fill:#ffffff;fill-opacity:1;fill-rule:nonzero;stroke:none"
             id="path36" />
        </g>
      </g>
    </g>
  </g>
</svg>
